{"scene":0,"scenes":[{"nodes":[0]}],"asset":{"version":"2.0","generator":"https://github.com/mikedh/trimesh"},"accessors":[{"componentType":5125,"type":"SCALAR","bufferView":0,"count":299568,"max":[12799],"min":[0]},{"componentType":5126,"type":"VEC3","byteOffset":0,"bufferView":1,"count":12800,"max":[3052.830078125,-2305.950927734375,2969.64990234375],"min":[0.0,-3300.448974609375,-3041.0]},{"componentType":5121,"normalized":true,"type":"VEC4","byteOffset":0,"bufferView":2,"count":12800,"max":[144,238,144,255],"min":[144,238,144,255]},{"componentType":5126,"type":"VEC3","byteOffset":0,"bufferView":3,"count":12800,"max":[3052.830078125,-2282.959716796875,2969.64990234375],"min":[0.0,-2868.270751953125,-3041.0]},{"componentType":5121,"normalized":true,"type":"VEC4","byteOffset":0,"bufferView":4,"count":12800,"max":[135,206,250,255],"min":[135,206,250,255]},{"componentType":5126,"type":"VEC3","byteOffset":0,"bufferView":5,"count":12800,"max":[3052.830078125,-2175.47802734375,2969.64990234375],"min":[0.0,-2850.769287109375,-3041.0]},{"componentType":5121,"normalized":true,"type":"VEC4","byteOffset":0,"bufferView":6,"count":12800,"max":[240,128,128,255],"min":[240,128,128,255]},{"componentType":5126,"type":"VEC3","byteOffset":0,"bufferView":7,"count":12800,"max":[3052.830078125,-2132.97607421875,2969.64990234375],"min":[0.0,-2783.1923828125,-3041.0]},{"componentType":5121,"normalized":true,"type":"VEC4","byteOffset":0,"bufferView":8,"count":12800,"max":[240,230,140,255],"min":[240,230,140,255]},{"componentType":5126,"type":"VEC3","byteOffset":0,"bufferView":9,"count":12800,"max":[3052.830078125,-1527.0867919921875,2969.64990234375],"min":[0.0,-2725.123779296875,-3041.0]},{"componentType":5121,"normalized":true,"type":"VEC4","byteOffset":0,"bufferView":10,"count":12800,"max":[221,160,221,255],"min":[221,160,221,255]},{"componentType":5126,"type":"VEC3","byteOffset":0,"bufferView":11,"count":12800,"max":[3052.830078125,-1488.3121337890625,2969.64990234375],"min":[0.0,-2112.720703125,-3041.0]},{"componentType":5121,"normalized":true,"type":"VEC4","byteOffset":0,"bufferView":12,"count":12800,"max":[255,215,0,255],"min":[255,215,0,255]},{"componentType":5126,"type":"VEC3","byteOffset":0,"bufferView":13,"count":12800,"max":[3052.830078125,-1132.971435546875,2969.64990234375],"min":[0.0,-2092.681884765625,-3041.0]},{"componentType":5121,"normalized":true,"type":"VEC4","byteOffset":0,"bufferView":14,"count":12800,"max":[255,140,0,255],"min":[255,140,0,255]},{"componentType":5126,"type":"VEC3","byteOffset":0,"bufferView":15,"count":12800,"max":[3052.830078125,-1101.173828125,2969.64990234375],"min":[0.0,-1657.23583984375,-3041.0]},{"componentType":5121,"normalized":true,"type":"VEC4","byteOffset":0,"bufferView":16,"count":12800,"max":[0,255,255,255],"min":[0,255,255,255]},{"componentType":5126,"type":"VEC3","byteOffset":0,"bufferView":17,"count":12800,"max":[3052.830078125,201.8125762939453,2969.64990234375],"min":[0.0,-1630.2322998046875,-3041.0]},{"componentType":5121,"normalized":true,"type":"VEC4","byteOffset":0,"bufferView":18,"count":12800,"max":[255,0,255,255],"min":[255,0,255,255]},{"componentType":5126,"type":"VEC3","byteOffset":0,"bufferView":19,"count":12800,"max":[3052.830078125,262.0643615722656,2969.64990234375],"min":[0.0,-916.0130004882812,-3041.0]},{"componentType":5121,"normalized":true,"type":"VEC4","byteOffset":0,"bufferView":20,"count":12800,"max":[0,255,0,255],"min":[0,255,0,255]}],"meshes":[{"name":"geometry_0","extras":{"processed":true},"primitives":[{"attributes":{"POSITION":1,"COLOR_0":2},"indices":0,"mode":4}]},{"name":"geometry_1","extras":{"processed":true},"primitives":[{"attributes":{"POSITION":3,"COLOR_0":4},"indices":0,"mode":4}]},{"name":"geometry_2","extras":{"processed":true},"primitives":[{"attributes":{"POSITION":5,"COLOR_0":6},"indices":0,"mode":4}]},{"name":"geometry_3","extras":{"processed":true},"primitives":[{"attributes":{"POSITION":7,"COLOR_0":8},"indices":0,"mode":4}]},{"name":"geometry_4","extras":{"processed":true},"primitives":[{"attributes":{"POSITION":9,"COLOR_0":10},"indices":0,"mode":4}]},{"name":"geometry_5","extras":{"processed":true},"primitives":[{"attributes":{"POSITION":11,"COLOR_0":12},"indices":0,"mode":4}]},{"name":"geometry_6","extras":{"processed":true},"primitives":[{"attributes":{"POSITION":13,"COLOR_0":14},"indices":0,"mode":4}]},{"name":"geometry_7","extras":{"processed":true},"primitives":[{"attributes":{"POSITION":15,"COLOR_0":16},"indices":0,"mode":4}]},{"name":"geometry_8","extras":{"processed":true},"primitives":[{"attributes":{"POSITION":17,"COLOR_0":18},"indices":0,"mode":4}]},{"name":"geometry_9","extras":{"processed":true},"primitives":[{"attributes":{"POSITION":19,"COLOR_0":20},"indices":0,"mode":4}]}],"nodes":[{"name":"world","children":[1,2,3,4,5,6,7,8,9,10]},{"name":"sandstone_3","mesh":0},{"name":"coal5-3","mesh":1},{"name":"sandstone_2","mesh":2},{"name":"coal5-2","mesh":3},{"name":"sandstone_1","mesh":4},{"name":"coal4-2","mesh":5},{"name":"Sandstone and mudstone mixed layer","mesh":6},{"name":"coal3-1","mesh":7},{"name":"gravel sandstone layer","mesh":8},{"name":"loose layer","mesh":9}],"buffers":[{"uri":"gltf_buffer_0.bin","byteLength":1198272},{"uri":"gltf_buffer_1.bin","byteLength":153600},{"uri":"gltf_buffer_2.bin","byteLength":51200},{"uri":"gltf_buffer_3.bin","byteLength":153600},{"uri":"gltf_buffer_4.bin","byteLength":51200},{"uri":"gltf_buffer_5.bin","byteLength":153600},{"uri":"gltf_buffer_6.bin","byteLength":51200},{"uri":"gltf_buffer_7.bin","byteLength":153600},{"uri":"gltf_buffer_8.bin","byteLength":51200},{"uri":"gltf_buffer_9.bin","byteLength":153600},{"uri":"gltf_buffer_10.bin","byteLength":51200},{"uri":"gltf_buffer_11.bin","byteLength":153600},{"uri":"gltf_buffer_12.bin","byteLength":51200},{"uri":"gltf_buffer_13.bin","byteLength":153600},{"uri":"gltf_buffer_14.bin","byteLength":51200},{"uri":"gltf_buffer_15.bin","byteLength":153600},{"uri":"gltf_buffer_16.bin","byteLength":51200},{"uri":"gltf_buffer_17.bin","byteLength":153600},{"uri":"gltf_buffer_18.bin","byteLength":51200},{"uri":"gltf_buffer_19.bin","byteLength":153600},{"uri":"gltf_buffer_20.bin","byteLength":51200}],"bufferViews":[{"buffer":0,"byteOffset":0,"byteLength":1198272},{"buffer":1,"byteOffset":0,"byteLength":153600},{"buffer":2,"byteOffset":0,"byteLength":51200},{"buffer":3,"byteOffset":0,"byteLength":153600},{"buffer":4,"byteOffset":0,"byteLength":51200},{"buffer":5,"byteOffset":0,"byteLength":153600},{"buffer":6,"byteOffset":0,"byteLength":51200},{"buffer":7,"byteOffset":0,"byteLength":153600},{"buffer":8,"byteOffset":0,"byteLength":51200},{"buffer":9,"byteOffset":0,"byteLength":153600},{"buffer":10,"byteOffset":0,"byteLength":51200},{"buffer":11,"byteOffset":0,"byteLength":153600},{"buffer":12,"byteOffset":0,"byteLength":51200},{"buffer":13,"byteOffset":0,"byteLength":153600},{"buffer":14,"byteOffset":0,"byteLength":51200},{"buffer":15,"byteOffset":0,"byteLength":153600},{"buffer":16,"byteOffset":0,"byteLength":51200},{"buffer":17,"byteOffset":0,"byteLength":153600},{"buffer":18,"byteOffset":0,"byteLength":51200},{"buffer":19,"byteOffset":0,"byteLength":153600},{"buffer":20,"byteOffset":0,"byteLength":51200}]}