{"scene":0,"scenes":[{"nodes":[0]}],"asset":{"version":"2.0","generator":"https://github.com/mikedh/trimesh"},"accessors":[{"componentType":5125,"type":"SCALAR","bufferView":0,"count":299568,"max":[12799],"min":[0]},{"componentType":5126,"type":"VEC3","byteOffset":0,"bufferView":1,"count":12800,"max":[4306007.0,37427996.0,10995.326171875],"min":[4302954.0,37421984.0,10439.263671875]},{"componentType":5121,"normalized":true,"type":"VEC4","byteOffset":0,"bufferView":2,"count":12800,"max":[0,255,255,255],"min":[0,255,255,255]}],"meshes":[{"name":"geometry_0","extras":{"processed":true},"primitives":[{"attributes":{"POSITION":1,"COLOR_0":2},"indices":0,"mode":4}]}],"nodes":[{"name":"world","children":[1]},{"name":"geometry_0","mesh":0}],"buffers":[{"uri":"gltf_buffer_0.bin","byteLength":1198272},{"uri":"gltf_buffer_1.bin","byteLength":153600},{"uri":"gltf_buffer_2.bin","byteLength":51200}],"bufferViews":[{"buffer":0,"byteOffset":0,"byteLength":1198272},{"buffer":1,"byteOffset":0,"byteLength":153600},{"buffer":2,"byteOffset":0,"byteLength":51200}]}